<?xml version="1.0" encoding="iso-8859-1"?>
<!-- Generator: Adobe Illustrator 19.0.0, SVG Export Plug-In . SVG Version: 6.00 Build 0)  -->
<svg xmlns="http://www.w3.org/2000/svg" xmlns:xlink="http://www.w3.org/1999/xlink" version="1.1" id="Layer_1" x="0px" y="0px" viewBox="0 0 439.48 439.48" style="enable-background:new 0 0 439.48 439.48;" xml:space="preserve" width="512" height="512">
<g>
	<rect x="274.727" y="182.726" style="fill:#FFD039;" width="22.26" height="35.283"/>
	<rect x="288.227" y="182.726" style="fill:#EAB932;" width="8.76" height="35.283"/>
	<polygon style="fill:#FFD039;" points="338.41,263.382 338.41,311.41 280.776,311.41 223.743,311.41 223.743,263.382    247.757,263.382 314.396,263.382  "/>
	<polygon style="fill:#CCCCCC;" points="292.827,308.396 292.827,363.066 226.66,363.066 226.66,307.396 292.827,307.396  "/>
	<polygon style="fill:#999999;" points="338.827,307.396 338.827,363.066 280.827,363.066 280.827,308.396 280.827,307.396  "/>
	<polygon style="fill:#EAB932;" points="328.827,260.062 328.827,262.826 222.736,262.826 222.736,274.896 328.827,274.896    328.827,303.128 328.827,363.066 407.827,363.066 407.827,260.062  "/>
	<polygon style="fill:#3B9DFF;" points="368.327,209.396 296.986,209.396 274.727,209.396 264.327,209.396 229.077,243.756    223.077,267.396 308.827,267.396 328.827,267.396 407.827,267.396 427.827,267.396  "/>
	<polygon style="fill:#1E79C4;" points="427.827,267.396 407.827,267.396 328.827,267.396 308.827,267.396 368.327,209.396  "/>
	<circle style="fill:#666666;" cx="368.427" cy="246.546" r="7.5"/>
	<rect x="49.236" y="262.826" style="fill:#FFD039;" width="117.09" height="51.24"/>
	<polygon style="fill:#CCCCCC;" points="176.74,308.396 176.74,363.066 64.439,363.066 33.517,363.066 33.517,307.396    64.439,307.396 176.74,307.396  "/>
	<rect x="107.397" y="182.726" style="fill:#FFD039;" width="22.26" height="35.283"/>
	<rect x="120.897" y="182.726" style="fill:#EAB932;" width="8.76" height="35.283"/>
	<polygon style="fill:#EAB932;" points="154.327,260.066 154.327,262.826 49.236,262.826 49.236,274.896 154.327,274.896    154.327,363.066 233.327,363.066 233.327,260.066  "/>
	<polygon style="fill:#ED2E2E;" points="253.327,267.396 229.077,243.756 193.827,209.396 129.657,209.396 107.397,209.396    89.827,209.396 30.327,267.396 233.327,267.396  "/>
	<rect x="106.327" y="307.396" style="fill:#999999;" width="48" height="55.67"/>
	<path style="fill:#666666;" d="M178.823,277.397c-4.142,0-7.5,3.358-7.5,7.5v13c0,4.142,3.358,7.5,7.5,7.5s7.5-3.358,7.5-7.5v-13   C186.323,280.755,182.965,277.397,178.823,277.397z"/>
	<path style="fill:#666666;" d="M78.823,277.397c-4.142,0-7.5,3.358-7.5,7.5v13c0,4.142,3.358,7.5,7.5,7.5s7.5-3.358,7.5-7.5v-13   C86.323,280.755,82.965,277.397,78.823,277.397z"/>
	<path style="fill:#666666;" d="M118.823,277.397c-4.142,0-7.5,3.358-7.5,7.5v13c0,4.142,3.358,7.5,7.5,7.5s7.5-3.358,7.5-7.5v-13   C126.323,280.755,122.965,277.397,118.823,277.397z"/>
	<path style="fill:#666666;" d="M258.323,277.397c-4.142,0-7.5,3.358-7.5,7.5v13c0,4.142,3.358,7.5,7.5,7.5s7.5-3.358,7.5-7.5v-13   C265.823,280.755,262.465,277.397,258.323,277.397z"/>
	<path style="fill:#666666;" d="M298.323,277.397c-4.142,0-7.5,3.358-7.5,7.5v13c0,4.142,3.358,7.5,7.5,7.5s7.5-3.358,7.5-7.5v-13   C305.823,280.755,302.465,277.397,298.323,277.397z"/>
	<path style="fill:#666666;" d="M208.823,305.397c4.142,0,7.5-3.358,7.5-7.5v-13c0-4.142-3.358-7.5-7.5-7.5s-7.5,3.358-7.5,7.5v13   C201.323,302.039,204.681,305.397,208.823,305.397z"/>
	<path style="fill:#666666;" d="M178.823,315.897c-4.142,0-7.5,3.358-7.5,7.5v13c0,4.142,3.358,7.5,7.5,7.5s7.5-3.358,7.5-7.5v-13   C186.323,319.255,182.965,315.897,178.823,315.897z"/>
	<path style="fill:#666666;" d="M216.323,336.397v-13c0-4.142-3.358-7.5-7.5-7.5s-7.5,3.358-7.5,7.5v13c0,4.142,3.358,7.5,7.5,7.5   S216.323,340.539,216.323,336.397z"/>
	<path style="fill:#666666;" d="M353.323,305.397c4.142,0,7.5-3.358,7.5-7.5v-13c0-4.142-3.358-7.5-7.5-7.5s-7.5,3.358-7.5,7.5v13   C345.823,302.039,349.181,305.397,353.323,305.397z"/>
	<path style="fill:#666666;" d="M383.323,305.397c4.142,0,7.5-3.358,7.5-7.5v-13c0-4.142-3.358-7.5-7.5-7.5s-7.5,3.358-7.5,7.5v13   C375.823,302.039,379.181,305.397,383.323,305.397z"/>
	<path style="fill:#666666;" d="M353.323,343.897c4.142,0,7.5-3.358,7.5-7.5v-13c0-4.142-3.358-7.5-7.5-7.5s-7.5,3.358-7.5,7.5v13   C345.823,340.539,349.181,343.897,353.323,343.897z"/>
	<path style="fill:#666666;" d="M383.323,343.897c4.142,0,7.5-3.358,7.5-7.5v-13c0-4.142-3.358-7.5-7.5-7.5s-7.5,3.358-7.5,7.5v13   C375.823,340.539,379.181,343.897,383.323,343.897z"/>
	<g>
		<rect x="128.907" y="307.396" style="fill:#666666;" width="5" height="55.67"/>
	</g>
	<g>
		<rect x="303.907" y="307.396" style="fill:#666666;" width="5" height="55.67"/>
	</g>
	<g>
		<path style="fill:#0FBC30;" d="M439.48,386.233H0c0-4.43,1.13-8.59,3.12-12.22c1.17-2.14,2.64-4.09,4.35-5.8    c4.61-4.62,10.99-7.47,18.03-7.47h388.48c9.65,0,18.05,5.36,22.38,13.27C438.35,377.643,439.48,381.803,439.48,386.233z"/>
		<path style="fill:#07A521;" d="M439.48,386.233H0c0-4.43,1.13-8.59,3.12-12.22h433.24    C438.35,377.643,439.48,381.803,439.48,386.233z"/>
	</g>
	<polygon style="fill:#D82525;" points="253.327,267.396 233.327,267.396 233.327,267.396 134.667,267.396 193.827,209.396    229.077,243.756  "/>
	<circle style="fill:#666666;" cx="193.786" cy="246.546" r="7.5"/>
	<path style="fill:#EAB932;" d="M143.993,106.497c-8.5,0-20.463,28-19.313,28.66l-0.01,0.01c-9.21,11.34-23.27,18.58-39.01,18.58   c-27.75,0-50.25-22.5-50.25-50.25s22.5-50.25,50.25-50.25c17.49,0,32.9,8.94,41.89,22.5L143.993,106.497z"/>
	<path style="fill:#FFD039;" d="M135.91,103.507c0,27.75-22.5,50.24-50.25,50.24c-4.47,0-8.81-0.58-12.94-1.68   c-8.21-7.91-13.31-19.01-13.31-31.31c0-24.03,19.48-43.5,43.5-43.5c12.3,0,23.4,5.1,31.32,13.31   C135.33,94.697,135.91,99.037,135.91,103.507z"/>
	<path style="fill:#3B9DFF;" d="M218.14,110.997c2.79,2.78,4.51,6.63,4.51,10.87c0,8.49-6.89,15.38-15.38,15.38h-74.86   c-2.82,0-5.46-0.76-7.73-2.09c-1.15-0.66-2.21-1.48-3.15-2.42c-2.78-2.78-4.5-6.63-4.5-10.87c0-8.49,6.88-15.37,15.38-15.37H88.29   c-4.25,0-8.09-1.72-10.87-4.5c-2.79-2.79-4.51-6.63-4.51-10.88c0-8.49,6.89-15.37,15.38-15.37h39.26h35.6   c4.25,0,8.09,1.72,10.88,4.5c2.78,2.78,4.5,6.62,4.5,10.87c0,8.5-6.88,15.38-15.38,15.38h44.12   C211.52,106.497,215.36,108.217,218.14,110.997z"/>
</g>















</svg>
